{
  "accessors": [
    {
      "bufferView": 2,
      "componentType": 5126,
      "count": 7337,
      "max": [
        36.0,
        8.0,
        76.0
      ],
      "min": [
        -40.0,
        -68.0,
        -2.8737593850940027e-15
      ],
      "type": "VEC3"
    },
    {
      "bufferView": 2,
      "byteOffset": 88044,
      "componentType": 5126,
      "count": 7337,
      "max": [
        0.9924421906471252,
        0.9924421906471252,
        0.9961703419685364
      ],
      "min": [
        -0.9924421906471252,
        -0.9924420714378357,
        -0.9961703419685364
      ],
      "type": "VEC3"
    },
    {
      "bufferView": 1,
      "componentType": 5126,
      "count": 7337,
      "max": [
        1.0,
        1.0
      ],
      "min": [
        0.0,
        0.005456387996673584
      ],
      "type": "VEC2"
    },
    {
      "bufferView": 1,
      "byteOffset": 58696,
      "componentType": 5126,
      "count": 7337,
      "max": [
        1.0,
        1.0
      ],
      "min": [
        0.0,
        0.005456387996673584
      ],
      "type": "VEC2"
    },
    {
      "bufferView": 0,
      "componentType": 5125,
      "count": 7344,
      "type": "SCALAR"
    }
  ],
  "asset": {
    "extras": {
      "author": "ducknostrils (https://sketchfab.com/ducknostrils)",
      "license": "CC-BY-4.0 (http://creativecommons.org/licenses/by/4.0/)",
      "source": "https://sketchfab.com/3d-models/blue-ball-hahahahahaha-068c79edea004cafa1ac4c1e501be333",
      "title": "blue ball hahahahahaha"
    },
    "generator": "Sketchfab-10.84.0",
    "version": "2.0"
  },
  "bufferViews": [
    {
      "buffer": 0,
      "byteLength": 29376,
      "name": "floatBufferViews",
      "target": 34963
    },
    {
      "buffer": 0,
      "byteLength": 117392,
      "byteOffset": 29376,
      "byteStride": 8,
      "name": "floatBufferViews",
      "target": 34962
    },
    {
      "buffer": 0,
      "byteLength": 176088,
      "byteOffset": 146768,
      "byteStride": 12,
      "name": "floatBufferViews",
      "target": 34962
    }
  ],
  "buffers": [
    {
      "byteLength": 322856,
      "uri": "scene.bin"
    }
  ],
  "extensionsUsed": [
    "KHR_texture_transform"
  ],
  "images": [
    {
      "uri": "textures/lambert2SG.001_baseColor.jpeg"
    }
  ],
  "materials": [
    {
      "doubleSided": true,
      "name": "lambert2SG.001",
      "pbrMetallicRoughness": {
        "baseColorTexture": {
          "extensions": {
            "KHR_texture_transform": {
              "offset": [
                0.03122999999999987,
                -0.4486300000000001
              ],
              "rotation": -0.558505,
              "scale": [
                3.701,
                3.701
              ]
            }
          },
          "index": 0
        },
        "metallicFactor": 0.83,
        "roughnessFactor": 0.0
      }
    }
  ],
  "meshes": [
    {
      "name": "Object_0",
      "primitives": [
        {
          "attributes": {
            "NORMAL": 1,
            "POSITION": 0,
            "TEXCOORD_0": 2,
            "TEXCOORD_1": 3
          },
          "indices": 4,
          "material": 0,
          "mode": 4
        }
      ]
    }
  ],
  "nodes": [
    {
      "children": [
        1
      ],
      "matrix": [
        1.0,
        0.0,
        0.0,
        0.0,
        0.0,
        2.220446049250313e-16,
        -1.0,
        0.0,
        0.0,
        1.0,
        2.220446049250313e-16,
        0.0,
        0.0,
        0.0,
        0.0,
        1.0
      ],
      "name": "Sketchfab_model"
    },
    {
      "children": [
        2
      ],
      "name": "root"
    },
    {
      "children": [
        3
      ],
      "matrix": [
        1.0,
        0.0,
        0.0,
        0.0,
        0.0,
        2.220446049250313e-16,
        1.0,
        0.0,
        0.0,
        -1.0,
        2.220446049250313e-16,
        0.0,
        0.0,
        0.0,
        0.0,
        1.0
      ],
      "name": "GLTF_SceneRootNode"
    },
    {
      "children": [
        4
      ],
      "matrix": [
        0.5263158082962036,
        0.0,
        0.0,
        0.0,
        0.0,
        0.5263158082962036,
        0.0,
        0.0,
        0.0,
        0.0,
        0.5263158082962036,
        0.0,
        1.0526305437088013,
        5.018472430288546e-15,
        -15.789473533630371,
        1.0
      ],
      "name": "Glorious Rottis_1"
    },
    {
      "children": [
        5
      ],
      "matrix": [
        1.0,
        0.0,
        -0.0,
        0.0,
        -0.0,
        0.0,
        -1.0,
        0.0,
        0.0,
        1.0,
        0.0,
        0.0,
        0.0,
        0.0,
        0.0,
        1.0
      ],
      "name": "unnamed_2"
    },
    {
      "children": [
        6
      ],
      "name": "Mesh_Mesh_head_geo.001_lambert2SG.001_3"
    },
    {
      "mesh": 0,
      "name": "Object_6"
    }
  ],
  "samplers": [
    {
      "magFilter": 9729,
      "minFilter": 9987,
      "wrapS": 33648,
      "wrapT": 33648
    }
  ],
  "scene": 0,
  "scenes": [
    {
      "name": "Sketchfab_Scene",
      "nodes": [
        0
      ]
    }
  ],
  "textures": [
    {
      "sampler": 0,
      "source": 0
    }
  ]
}
